<svg width="92" height="92" viewBox="0 0 92 92" fill="none" xmlns="http://www.w3.org/2000/svg">
<path d="M10.683 61.2301H2.19937V43.3071L24.0504 18.9511C33.0692 27.7814 39.6041 34.1801 49.2936 43.6677L50.8488 42.1441L44.9586 36.377C45.1132 36.207 57.2397 22.8468 57.9465 22.0684L78.9007 45.5628C78.9014 47.1651 78.8993 39.7593 78.9047 61.231L35.2303 61.2303V63.3849H80.0038C80.6106 63.3849 81.1034 62.9021 81.1034 62.3076V56.6628H87.9305C88.5373 56.6628 89.0301 56.18 89.0301 55.5855L89.0308 1.07846C89.0308 0.483957 88.538 0.00120361 87.9312 0.00120361H62.8522V2.15579H86.8321V54.5077H81.1046V7.80676C81.1046 7.35973 80.8258 6.97618 80.4296 6.81349C80.2979 6.7586 80.1528 6.72818 80.0002 6.72818H10.1254V2.15458H50.3437V0H9.02633C8.4195 0 7.92673 0.482754 7.92673 1.07726V6.72874H1.0996C0.492766 6.72874 0 7.21149 0 7.806V62.3063C0 62.9008 0.492766 63.3835 1.0996 63.3835H10.6828L10.683 61.2301ZM34.5852 26.2103C38.821 21.4397 46.6984 21.9318 50.2402 27.316L43.4009 34.8509C43.2545 34.7074 33.9952 25.6324 34.5852 26.2104V26.2103ZM78.9007 8.88495V42.2897L58.7812 19.7298C58.5733 19.497 58.2742 19.3621 57.9576 19.3608H57.9536C57.6397 19.3608 57.3407 19.4924 57.1314 19.7225L51.7415 25.6603C47.2479 19.5387 38.1014 19.1221 33.0269 24.6941L24.7741 16.6131C24.5581 16.4055 24.2672 16.2918 23.9607 16.299C23.657 16.3089 23.3708 16.4419 23.1703 16.6654L2.19884 40.043V8.88471L78.9007 8.88495Z" fill="#222222"/>
<path d="M54.6416 0.000976562H57.9255V2.15508H54.6416V0.000976562Z" fill="#222222"/>
<path d="M33.4795 14.3115L36.2741 17.321L34.6477 18.7709L31.853 15.7614L33.4795 14.3115Z" fill="#222222"/>
<path d="M41.2573 11.3701H43.4561V15.4388H41.2573V11.3701Z" fill="#222222"/>
<path d="M51.2338 14.3115L52.8602 15.7614L50.0649 18.7703L48.4385 17.3204L51.2338 14.3115Z" fill="#222222"/>
<path d="M8.69391 68.6922C8.3591 68.6922 8.04118 68.8423 7.83326 69.0989C7.62401 69.3568 7.54706 69.6921 7.62264 70.0134L12.6326 91.1665C12.7487 91.6545 13.1922 91.9997 13.7038 91.9997H32.18C32.691 91.9997 33.1351 91.6545 33.2512 91.1665L38.2612 70.0134C38.3368 69.6921 38.2598 69.3568 38.0505 69.0989C37.8426 68.8423 37.5254 68.6922 37.1899 68.6922H24.0413V66.164C29.2618 65.629 33.3471 61.3034 33.3471 56.0296C33.3471 55.4351 32.8543 54.9524 32.2475 54.9524C28.9129 54.9524 25.9469 56.5031 24.0414 58.9009V55.3974C26.4046 55.1547 28.5956 54.139 30.2988 52.4706C32.2644 50.5449 33.3472 47.9877 33.3472 45.2677C33.3472 44.6732 32.8544 44.1904 32.2476 44.1904C30.1902 44.1904 28.2259 44.7743 26.5465 45.8562C26.1408 43.9253 25.1742 42.1516 23.7196 40.7285C23.2903 40.3066 22.5943 40.3093 22.1643 40.7285C20.6766 42.1867 19.7397 43.9815 19.3442 45.8649C17.6634 44.777 15.6965 44.1905 13.6382 44.1905C13.0314 44.1905 12.5386 44.6732 12.5386 45.2677C12.5386 50.5231 16.6218 54.8612 21.843 55.3995V58.8951C19.7903 56.3213 16.7932 54.9524 13.6369 54.9524C13.0301 54.9524 12.5373 55.4352 12.5373 56.0297C12.5373 61.2864 16.6205 65.6252 21.8432 66.1654V68.6922L8.69391 68.6922ZM31.0633 57.1908C30.5483 60.6931 27.7039 63.481 24.1275 63.9857C24.6459 60.4788 27.4837 57.6987 31.0633 57.1908ZM28.744 50.9468C27.8017 51.87 26.6703 52.5405 25.4363 52.9248C26.1897 51.6188 26.6784 50.0218 26.7519 48.4108C27.9677 47.3362 29.458 46.653 31.0632 46.4275C30.8128 48.1316 30.0109 49.7056 28.7439 50.9468H28.744ZM22.9436 43.1309C25.0874 45.9395 25.1246 49.8068 22.9382 52.692C20.7357 49.7811 20.8855 45.8318 22.9436 43.1309ZM14.8239 46.4275C16.4217 46.6537 17.9094 47.3368 19.1238 48.4108C19.1967 50.0098 19.7381 51.7034 20.4367 52.9209C17.4984 51.9964 15.2763 49.4882 14.8241 46.4277L14.8239 46.4275ZM14.8226 57.1895C18.3976 57.694 21.2433 60.4807 21.7584 63.9843C18.1788 63.4765 15.3403 60.6963 14.8226 57.1895ZM31.3072 89.8459H14.5777L11.8379 78.2745H18.7306V76.1199H11.3276L10.0789 70.8468H35.8059L31.3072 89.8459Z" fill="#222222"/>
<path d="M20.5103 76.1191H24.7464V78.2732H20.5103V76.1191Z" fill="#222222"/>
<path d="M86.2104 65.9893H88.4093V69.2454H86.2104V65.9893Z" fill="#222222"/>
<path d="M86.2104 71.9229H88.4093V75.181H86.2104V71.9229Z" fill="#222222"/>
<path d="M82.6196 69.5068H85.9433V71.661H82.6196V69.5068Z" fill="#222222"/>
<path d="M88.6763 69.5068H91.9999V71.661H88.6763V69.5068Z" fill="#222222"/>
</svg>
