<svg width="25" height="21" viewBox="0 0 25 21" fill="none" xmlns="http://www.w3.org/2000/svg">
<path d="M12.5 0C5.59689 0 2.85263e-05 5.47969 2.85263e-05 12.2446C-0.00650773 15.2318 1.1104 18.1189 3.14169 20.3655C3.20315 20.4311 3.25888 20.4967 3.32033 20.5568C3.81252 21 3.962 21 4.35262 21C4.74325 21 5.00002 21 5.39064 20.5517C7.08335 18.6092 9.68751 17.7692 12.5 17.7692C15.3125 17.7692 17.9203 18.6128 19.6094 20.5517C20 21 20.251 21 20.6474 21C21.0437 21 21.2359 21 21.6797 20.5568C21.7432 20.4937 21.7969 20.4311 21.8583 20.3655C23.8896 18.1189 25.0065 15.2318 25 12.2446C25 5.47969 19.4031 0 12.5 0ZM11.6667 3.23077H13.3333V6.46154H11.6667V3.23077ZM6.66668 12.9231H3.33335V11.3077H6.66668V12.9231ZM7.78595 8.68875L5.42918 6.40399L6.60731 5.26212L8.96459 7.54637L7.78595 8.68875ZM13.6771 13.0947C13.5759 13.2307 13.4528 13.35 13.3125 13.4481C12.9739 13.677 12.5557 13.7673 12.1488 13.6994C11.7419 13.6314 11.3791 13.4106 11.1391 13.0849C10.8991 12.7593 10.8013 12.355 10.8669 11.9599C10.9325 11.5648 11.1563 11.2107 11.4896 10.9745L15.8333 8.88461L13.6771 13.0947ZM16.0354 7.54637L18.3927 5.26212L19.5708 6.40399L17.2141 8.68875L16.0354 7.54637ZM21.6666 12.9231H18.3333V11.3077H21.6666V12.9231Z" fill="white"/>
</svg>
