<svg width="259" height="260" viewBox="0 0 259 260" fill="none" xmlns="http://www.w3.org/2000/svg">
<path d="M245.689 127.155C243.22 120.734 234.549 117.387 221.214 117.717C208.648 118.046 193.172 121.503 177.587 127.485C165.624 132.094 154.649 137.801 145.758 144.003L148.283 147.625C156.843 141.643 167.545 136.1 179.178 131.6C194.27 125.783 209.251 122.436 221.324 122.107C232.464 121.832 239.872 124.247 241.573 128.692C243.274 133.192 239.433 139.886 230.982 147.185C221.818 155.087 208.483 162.605 193.391 168.422C178.3 174.24 163.319 177.587 151.246 177.916C140.106 178.191 132.698 175.776 130.997 171.331C130.722 170.618 130.613 169.849 130.613 169.026H130.448L133.631 166.996C138.844 163.703 140.545 156.898 137.472 151.575L137.362 151.356C135.606 148.283 132.533 146.142 129.021 145.539L130.667 136.923C131.984 129.954 129.515 122.82 124.137 118.21L110.253 106.247L128.582 87.4238C135.88 79.9606 136.045 68.1071 129.076 60.3694L126.99 58.0646C126.606 57.6256 126.057 57.3512 125.454 57.3512C124.85 57.3512 124.301 57.5707 123.862 57.9548L97.4667 82.7594L85.7231 37.9252L121.503 4.61472L168.916 16.139L182.306 67.4511L146.527 100.762L134.344 97.7982L133.302 102.079L146.637 105.316C147.35 105.481 148.118 105.316 148.667 104.768L186.258 69.7562C186.862 69.2074 187.081 68.3843 186.862 67.616L172.868 13.7802C172.648 13.0119 172.045 12.4083 171.276 12.1888L121.393 0.0609034C120.68 -0.103725 119.912 0.0609032 119.363 0.609697L81.7721 35.621C81.1684 36.1698 80.9489 36.993 81.1684 37.7612L93.8452 86.1628H93.9549L45.005 132.095C41.9868 134.948 39.9014 138.68 39.1332 142.741L29.2005 194.269L0.71917 220.061C0.0606474 220.665 -0.158857 221.597 0.11554 222.475C8.34695 244.481 29.365 259.024 52.8525 259.024H56.5293C57.4622 259.024 58.2853 258.42 58.6146 257.542L73.9801 212.543L102.516 186.695L126.443 171.549C126.552 172.043 126.662 172.482 126.827 172.921L139.448 205.683C141.808 211.774 149.82 215.121 162.167 215.121H163.923C176.49 214.792 191.966 211.335 207.55 205.353C223.08 199.371 236.91 191.579 246.458 183.348C256.556 174.677 260.781 166.336 258.312 159.97L245.689 127.155ZM121.285 121.612C125.456 125.234 127.377 130.777 126.333 136.155L124.742 144.441C124.742 144.441 112.34 151.246 110.803 152.014C107.456 149.161 107.017 144.112 109.87 140.765C109.87 140.765 109.87 140.71 109.925 140.71L112.175 138.131C112.944 137.253 112.889 135.935 112.011 135.112L96.4806 120.406L107.182 109.43L121.285 121.612ZM103.834 148.063C104.054 149.38 104.493 150.642 105.151 151.85L83.1459 134.125L93.4625 123.588L107.511 136.869L106.633 137.856C104.218 140.655 103.176 144.441 103.834 148.063ZM103.066 155.801C101.859 156.405 100.706 156.953 99.5539 157.502C92.6943 160.795 84.4077 158.6 80.1274 152.289L74.0911 143.399L80.0175 137.307L103.066 155.801ZM100.048 183.075C99.9381 183.13 99.8283 183.239 99.7186 183.294L70.6337 209.69C70.3593 209.964 70.1398 210.239 70.0301 210.623L54.9937 254.634H52.8535C31.7808 254.579 12.7932 241.793 4.78159 222.311L32.6588 197.013C32.9881 196.684 33.2624 196.245 33.3173 195.806L43.4147 143.566C44.0183 140.383 45.6098 137.474 47.9694 135.279L125.236 62.7337L125.84 63.3922C131.272 69.4285 131.108 78.6478 125.456 84.4649L69.7032 141.592C68.9898 142.36 68.88 143.513 69.4837 144.336L76.5079 154.708C82.0505 162.83 92.6416 165.683 101.532 161.403C104.44 159.976 121.946 151.47 123.867 150.482C127.379 148.781 131.605 150.098 133.525 153.5L133.635 153.72C135.556 157.012 134.458 161.238 131.275 163.268L100.048 183.075ZM163.868 210.733C152.728 211.007 145.32 208.592 143.619 204.093L134.29 179.782C138.186 181.429 143.344 182.307 149.655 182.307H151.411C153.716 182.252 156.131 182.087 158.6 181.813L169.575 210.349C167.6 210.568 165.734 210.678 163.868 210.733ZM174.02 209.855L163.045 181.264C173.252 179.672 183.239 176.984 192.898 173.362L203.928 202.062C194.324 205.684 184.282 208.318 174.02 209.855ZM208.044 200.416L197.013 171.77C206.617 167.984 215.836 163.264 224.507 157.612L235.482 186.202C226.867 191.91 217.702 196.685 208.044 200.416ZM243.604 180.002C242.232 181.209 240.75 182.361 239.159 183.514L228.183 154.978C230.214 153.496 232.08 152.014 233.836 150.533C239.214 145.923 242.945 141.368 244.866 137.198L254.195 161.508C255.951 166.008 252.11 172.758 243.604 180.002Z" fill="white"/>
<path d="M219.348 140.436L219.403 136.046H218.855C209.581 136.046 196.904 138.899 183.898 143.893C172.923 148.119 163.045 153.387 156.021 158.765L158.71 162.277C165.405 157.174 174.899 152.125 185.49 148.009C198.111 143.125 210.733 140.327 219.348 140.436V140.436Z" fill="white"/>
<path d="M122.876 207.272C122.436 206.613 121.613 206.229 120.845 206.339L96.48 209.028C95.6568 209.137 94.9983 209.631 94.669 210.4L86.1632 231.362C85.8888 232.021 85.9985 232.844 86.3827 233.448L99.224 252.106C99.6081 252.71 100.322 253.039 101.035 253.039H101.254L125.62 250.35C126.443 250.24 127.101 249.746 127.43 248.978L135.882 228.015C136.156 227.357 136.046 226.534 135.662 225.93L122.876 207.272ZM123.918 246.07L102.132 248.484L90.6629 231.911L98.1808 213.253L119.967 210.838L131.436 227.411L123.918 246.07Z" fill="white"/>
<path d="M96.8655 211.477L88.1584 232.156L100.856 251.021L125.889 248.119L133.507 226.714L121.535 208.574L96.8655 211.477Z" stroke="white" stroke-width="6"/>
<path d="M1.21114 78.8083L9.44254 82.924L17.8937 95.6008C18.2778 96.2044 18.9912 96.5886 19.7047 96.5886H54.8259C55.5393 96.5886 56.2527 96.2045 56.6368 95.6008L65.088 82.924L73.3194 78.8083C74.0877 78.4241 74.5267 77.6559 74.5267 76.8327V63.6623C74.5267 62.8391 74.0328 62.0708 73.3194 61.6867L65.3624 57.6807L61.2467 45.3882C60.9723 44.5102 60.0943 43.9066 59.1614 43.9066H48.186V34.3029L55.7591 30.5164L53.7836 26.5653L45.0033 30.9554C44.235 31.3396 43.796 32.1079 43.796 32.931V43.9064H30.7354V32.931C30.7354 32.1079 30.2415 31.3396 29.5282 30.9554L20.7479 26.5653L18.7723 30.5164L26.3454 34.3029V43.9066H15.3701C14.4371 43.9066 13.5591 44.5102 13.2848 45.3882L9.169 57.6807L1.21204 61.6867C0.443789 62.0708 0.004776 62.8391 0.004776 63.6623V76.8327C0.004776 77.6559 0.498669 78.4242 1.21204 78.8083H1.21114ZM4.39402 65.0342L11.9672 61.2477C12.4611 60.9733 12.9001 60.5343 13.0647 59.9856L16.9609 48.2967H57.6795L61.5757 59.9856C61.7403 60.5344 62.1794 60.9734 62.6733 61.2477L70.2464 65.0342V75.5159L62.6733 79.3024C62.344 79.4671 62.0147 79.7414 61.8501 80.0707L53.7281 92.1985H20.9118L12.7898 80.016C12.5703 79.6867 12.2959 79.4672 11.9667 79.2477L4.39352 75.4612L4.39402 65.0342Z" fill="white"/>
<path d="M24.1498 61.4684H32.9301V65.8586H24.1498V61.4684Z" fill="white"/>
<path d="M41.7104 61.4684H50.4907V65.8586H41.7104V61.4684Z" fill="white"/>
<path d="M32.9301 74.6339H41.7104V79.024H32.9301V74.6339Z" fill="white"/>
<path d="M167.49 65.5274L171.715 64.4299L162.057 27.4428C161.837 26.6745 161.234 26.0708 160.465 25.8513L125.948 17.4553C125.289 17.2907 124.576 17.4553 124.027 17.8944L106.356 32.7662L109.155 36.1137L125.948 21.9553L158.16 29.8029L167.49 65.5274Z" fill="white"/>
</svg>
