<svg width="72" height="72" viewBox="0 0 72 72" fill="none" xmlns="http://www.w3.org/2000/svg">
<path d="M6 70H5C5 70.5523 5.44772 71 6 71V70ZM17 70V71C17.5523 71 18 70.5523 18 70H17ZM17 44.5V43.5C16.4477 43.5 16 43.9477 16 44.5H17ZM21.5 44.5V45.5C21.8918 45.5 22.2475 45.2712 22.41 44.9146C22.5725 44.5581 22.5117 44.1395 22.2546 43.8438L21.5 44.5ZM11.5 33L12.2546 32.3438C12.0647 32.1254 11.7894 32 11.5 32C11.2106 32 10.9353 32.1254 10.7454 32.3438L11.5 33ZM1.5 44.5L0.745394 43.8438C0.488292 44.1395 0.42755 44.5581 0.590006 44.9146C0.752462 45.2712 1.10818 45.5 1.5 45.5L1.5 44.5ZM6 44.5H7C7 43.9477 6.55228 43.5 6 43.5V44.5ZM6 71H17V69H6V71ZM18 70V44.5H16V70H18ZM17 45.5H21.5V43.5H17V45.5ZM22.2546 43.8438L12.2546 32.3438L10.7454 33.6562L20.7454 45.1562L22.2546 43.8438ZM10.7454 32.3438L0.745394 43.8438L2.25461 45.1562L12.2546 33.6562L10.7454 32.3438ZM1.5 45.5H6V43.5H1.5V45.5ZM5 44.5V70H7V44.5H5Z" fill="black"/>
<path d="M30.5 70.5H29.5C29.5 71.0523 29.9477 71.5 30.5 71.5V70.5ZM41.5 70.5V71.5C42.0523 71.5 42.5 71.0523 42.5 70.5H41.5ZM41.5 30.5V29.5C40.9477 29.5 40.5 29.9477 40.5 30.5H41.5ZM46 30.5V31.5C46.3918 31.5 46.7475 31.2712 46.91 30.9146C47.0725 30.5581 47.0117 30.1395 46.7546 29.8438L46 30.5ZM36 19L36.7546 18.3438C36.5647 18.1254 36.2894 18 36 18C35.7106 18 35.4353 18.1254 35.2454 18.3438L36 19ZM26 30.5L25.2454 29.8438C24.9883 30.1395 24.9275 30.5581 25.09 30.9146C25.2525 31.2712 25.6082 31.5 26 31.5V30.5ZM30.5 30.5H31.5C31.5 29.9477 31.0523 29.5 30.5 29.5V30.5ZM30.5 71.5H41.5V69.5H30.5V71.5ZM42.5 70.5V30.5H40.5V70.5H42.5ZM41.5 31.5H46V29.5H41.5V31.5ZM46.7546 29.8438L36.7546 18.3438L35.2454 19.6562L45.2454 31.1562L46.7546 29.8438ZM35.2454 18.3438L25.2454 29.8438L26.7546 31.1562L36.7546 19.6562L35.2454 18.3438ZM26 31.5H30.5V29.5H26V31.5ZM29.5 30.5V70.5H31.5V30.5H29.5Z" fill="black"/>
<path d="M54.5 70.5H53.5C53.5 71.0523 53.9477 71.5 54.5 71.5V70.5ZM65.5 70.5V71.5C66.0523 71.5 66.5 71.0523 66.5 70.5H65.5ZM65.5 17.5V16.5C64.9477 16.5 64.5 16.9477 64.5 17.5H65.5ZM70 17.5V18.5C70.3918 18.5 70.7475 18.2712 70.91 17.9146C71.0725 17.5581 71.0117 17.1395 70.7546 16.8438L70 17.5ZM60 6L60.7546 5.34382C60.5647 5.12541 60.2894 5 60 5C59.7106 5 59.4353 5.12541 59.2454 5.34382L60 6ZM50 17.5L49.2454 16.8438C48.9883 17.1395 48.9275 17.5581 49.09 17.9146C49.2525 18.2712 49.6082 18.5 50 18.5V17.5ZM54.5 17.5H55.5C55.5 16.9477 55.0523 16.5 54.5 16.5V17.5ZM54.5 71.5H65.5V69.5H54.5V71.5ZM66.5 70.5V17.5H64.5V70.5H66.5ZM65.5 18.5H70V16.5H65.5V18.5ZM70.7546 16.8438L60.7546 5.34382L59.2454 6.65618L69.2454 18.1562L70.7546 16.8438ZM59.2454 5.34382L49.2454 16.8438L50.7546 18.1562L60.7546 6.65618L59.2454 5.34382ZM50 18.5H54.5V16.5H50V18.5ZM53.5 17.5V70.5H55.5V17.5H53.5Z" fill="black"/>
<rect x="25" y="36" width="22" height="36" fill="white"/>
<path d="M30.5 70H41.5V59L43 57V48.5L41.5 46.5H38.5C38.5 46.5 40.1848 44.4142 40 42.5C39.7612 40.0262 38.4853 38 36 38C33.5147 38 32.2388 40.0262 32 42.5C31.8152 44.4142 33.5 46.5 33.5 46.5H30.5L29 48.5V57L30.5 59V70Z" stroke="black" stroke-width="2" stroke-linejoin="round"/>
<path d="M34.5 49.5L36 51M36 51L37.5 49.5M36 51V55.5" stroke="black" stroke-width="2"/>
<path d="M21.5 22V16.5M21.5 11V16.5M21.5 16.5H27M21.5 16.5H16" stroke="black" stroke-width="2"/>
<path d="M5.5 11V5.5M5.5 0V5.5M5.5 5.5H11M5.5 5.5H0" stroke="black" stroke-width="2"/>
<rect x="40" y="2" width="2" height="2" fill="black"/>
<rect x="70" y="69" width="2" height="2" fill="black"/>
</svg>