<svg id="e99q3o8fxdv51" xmlns="http://www.w3.org/2000/svg" xmlns:xlink="http://www.w3.org/1999/xlink" viewBox="0 0 64 61" shape-rendering="geometricPrecision" text-rendering="geometricPrecision"><path id="e99q3o8fxdv52" d="M59.500000,1L4.500000,1L4.500000,27L59.500000,27L59.500000,1Z" fill="none" stroke="rgb(0,0,0)" stroke-width="1.500000" stroke-linecap="square" /><path id="e99q3o8fxdv53" d="M8,18.500000L8,10C11.600000,10,12.833300,6.666670,13,5L51,5C51,8.600000,54.333300,9.833330,56,10L56,18.500000C52,18.500000,51,21.833300,51,23.500000L13,23.500000C13,19.500000,9.666670,18.500000,8,18.500000Z" fill="none" stroke="rgb(0,0,0)" stroke-width="1.500000" stroke-linecap="square" /><circle id="e99q3o8fxdv54" r="6.250000" transform="matrix(1 0 0 1 32 14.25000000000000)" fill="none" stroke="rgb(0,0,0)" stroke-width="1.500000" /><path id="e99q3o8fxdv55" d="M34.000300,12.500000C34.000300,11.833300,33.600300,10.500000,32.000300,10.500000M32.000300,10.500000C30.000300,10.500000,29.500300,14,32.000300,14C34.500300,14,34.500600,18,32.000300,18M32.000300,10.500000L32.000300,9M32.000300,18C30.000100,18,30,16.500000,30,16M32.000300,18L32.000300,19.500000M41,14L43.500000,14M23,14L21,14" fill="none" stroke="rgb(0,0,0)" stroke-width="1.500000" /><path class="playing" id="e99q3o8fxdv56" d="M12,36.500000L12,31.500000L1,31.500000L1,58.500000L12,58.500000L12,53.500000M12,36.500000L19.500000,36.500000L31.500000,40.500000L41.500000,40.500000C43.333300,41.333300,45.900000,43.700000,41.500000,46.500000M12,36.500000L12,53.500000M41.500000,46.500000L31.500000,46.500000C29.833300,46.500000,26.500000,47.500000,26.500000,51.500000M41.500000,46.500000L59.500000,40.500000C61.500000,40.833300,64.800000,42.300000,62,45.500000L39,59C37.500000,59.333300,34,59.800000,32,59C30,58.200000,20.833300,55,16.500000,53.500000L12,53.500000" fill="none" stroke="rgb(0,0,0)" stroke-width="1.500000" stroke-linecap="round" /></svg>