<svg id="evyytawjxql1" xmlns="http://www.w3.org/2000/svg" xmlns:xlink="http://www.w3.org/1999/xlink" viewBox="0 0 87 101" shape-rendering="geometricPrecision" text-rendering="geometricPrecision"><path id="evyytawjxql2" d="M62.500000,63L70.500000,63C71.500000,63,73.500000,61.800000,73.500000,57L84.500000,66.500000L73.500000,76C73.666700,74,73.300000,70,70.500000,70C67.700000,70,58.666700,70,54.500000,70C52,70.333300,47,72.400000,47,78L47,85C47,85.833300,48.200000,87.500000,53,87.500000L43.500000,99L34,87.500000C36.166700,87.666700,40,87.400000,40,85C40,82.600000,40,79.333300,40,78C39.833300,75.333300,38.500000,70,32.500000,70C26.500000,70,19.333300,70,16.500000,70C15.500000,70,13.500000,71.200000,13.500000,76L2,66.500000L13.500000,57C13.500000,59,14.100000,63,16.500000,63C18.900000,63,23.166700,63,25,63" fill="none" stroke="rgb(0,0,0)" stroke-width="2"/><path id="evyytawjxql3" d="M50,7.500000C50,2.300000,45.666700,1,43.500000,1C41.333300,1,37,2.300000,37,7.500000C37,12.700000,41.333300,14,43.500000,14C45.666700,14,50,12.700000,50,7.500000Z" fill="none" stroke="rgb(0,0,0)" stroke-width="2" /><path id="evyytawjxql4" d="M50.500000,26.500000L50.500000,38M36.500000,26.500000L36.500000,38M36.500000,38L43.500000,38M36.500000,38L36.500000,58.270100M50.500000,38L43.500000,38M50.500000,38L50.500000,58.270100M43.500000,38L43.500000,63M43.500000,63L34,63C34,62,34.500000,60,36.500000,60L36.500000,58.270100M43.500000,63L53,63C53,62,52.500000,60,50.500000,60L50.500000,58.270100M36.500000,58.270100L50.500000,58.270100M31.500000,39L31.500000,22C31.500000,20.666700,32.300000,18,35.500000,18C37.151600,18,40.294800,18,43.500000,18M55.500000,39C55.500000,34.666700,55.500000,25.200000,55.500000,22C55.500000,18.800000,52.833300,18,51.500000,18C49.564500,18,46.505000,18,43.500000,18M43.500000,18L43.500000,26" fill="none" stroke="rgb(0,0,0)" stroke-width="2"  class="playing"/></svg>