<svg id="my-svg" width="101" height="103" viewBox="0 0 101 103" fill="none" xmlns="http://www.w3.org/2000/svg"><path d="M18.4517 83.9517C22.3874 87.7468 22.3874 94.1566 18.4517 97.9517C14.6566 101.611 8.7468 101.611 4.95173 97.9517C1.01609 94.1566 1.01609 87.7468 4.95173 83.9517C8.7468 80.2922 14.6566 80.2922 18.4517 83.9517ZM18.4517 83.9517C18.4517 83.9517 30.3366 72.0669 37.9519 64.4517M37.9519 64.4517C31.1321 57.2384 30.9797 46.3301 37.4949 38.9518M37.9519 64.4517C44.9024 71.8031 56.6146 72.2292 64.117 65.7299M37.4949 38.9518C37.6438 38.7832 37.7961 38.6165 37.9519 38.4517C45.0767 30.9158 57.2051 30.6571 64.6735 37.6756M37.4949 38.9518C37.4949 38.9518 28.6313 30.0881 22.9519 24.4087M22.9519 24.4087C26.7316 20.7574 26.7316 14.603 22.9519 10.9517C19.3006 7.42439 13.6032 7.42439 9.9519 10.9517C6.17222 14.603 6.17222 20.7574 9.9519 24.4087C13.6032 27.936 19.3006 27.936 22.9519 24.4087ZM64.6735 37.6756C64.939 37.9251 65.1986 38.1838 65.4519 38.4517C72.4276 45.8298 72.4276 57.0736 65.4519 64.4517C65.0243 64.904 64.5786 65.3301 64.117 65.7299M64.6735 37.6756C64.6735 37.6756 74.8995 26.8733 81.4519 19.9517M81.4519 19.9517C85.5232 23.8874 91.8806 23.8874 95.9519 19.9517C100.164 15.8804 100.164 9.02307 95.9519 4.95173C91.8806 1.01609 85.5232 1.01609 81.4519 4.95173C77.2402 9.02307 77.2402 15.8804 81.4519 19.9517ZM64.117 65.7299C64.117 65.7299 72.549 74.162 77.9519 79.5648M77.9519 79.5648C81.8702 75.7519 88.0336 75.7519 91.9519 79.5648C95.9785 83.4831 95.9785 90.0333 91.9519 93.9517C88.0336 97.7646 81.8702 97.7646 77.9519 93.9517C73.9253 90.0333 73.9253 83.4831 77.9519 79.5648Z" stroke="black" stroke-width="3" class="playing"/></svg>