<svg id="e7kx63r1drjo1" xmlns="http://www.w3.org/2000/svg" xmlns:xlink="http://www.w3.org/1999/xlink" viewBox="0 0 62 62" shape-rendering="geometricPrecision" text-rendering="geometricPrecision"><path id="e7kx63r1drjo2" d="M10.633700,10.419400C5.435270,15.482300,2,22.576300,2,31C2,48.306500,16.500000,60,31,60C38.491400,60,45.982800,56.878700,51.474600,51.474600M10.633700,10.419400C16.115400,5.080510,23.557700,2,31,2C45.500000,2,60,13.693500,60,31C60,39.365100,56.612400,46.418800,51.474600,51.474600M10.633700,10.419400L17.649900,17.435500M45.967700,45.967700L51.474600,51.474600" fill="none" stroke="rgb(0,0,0)" stroke-width="1.5" /><path id="e7kx63r1drjo3" d="M41,18.500000C40.035700,17.333300,37.046400,15,32.803600,15C28.286300,15,22.020100,18.627400,20.261400,26.500000M41,44C40.196400,45,37.432100,47,32.803600,47C27.902000,47,21.962200,43.411400,20.261400,35.626000M14,26.500000L20.261400,26.500000M20.261400,26.500000C19.955300,27.870300,19.785700,29.369200,19.785700,31C19.785700,32.680900,19.954600,34.221700,20.261400,35.626000M20.261400,26.500000L34.732100,26.500000M20.261400,35.626000L14,35.626000M20.261400,35.626000L34.732100,35.626000" fill="none" stroke="rgb(0,0,0)" class="playing" stroke-width="1.5"/></svg>